<svg xmlns="http://www.w3.org/2000/svg" viewBox="0 17.350000381469727 374 36.05000305175781" data-asc="1.058" width="374" height="36.05000305175781"><defs/><g fill="#000000"><g transform="translate(0, 0)"><path d="M21.30 51.95L17.65 41.15L7.75 41.15L3.90 51.95L7.65 51.95L7.65 52.90L0 52.90L0 51.95L2.35 51.95L15.10 17.60L19.20 17.60L31.80 51.95L34.10 51.95L34.10 52.90L17.75 52.90L17.75 51.95L21.30 51.95M12.90 26.95L8.20 40.05L17.25 40.05L12.90 26.95ZM61.85 17.90L61.85 19.00L47.05 51.75L48.75 51.75Q53.25 51.75 56.68 48.88Q60.10 46.00 61.60 40.70L62.50 40.70L61.90 52.90L36.30 52.90L36.30 51.95L51.25 19.00L49.20 19.00Q44.75 19.00 42.45 20.95Q40.15 22.90 37.25 28.95L36.35 28.95L37.10 17.90L61.85 17.90ZM91.90 17.90L105.25 17.90L105.25 18.85L102.50 18.85L102.50 51.95L105.25 51.95L105.25 52.90L90 52.90L90 51.95L92.75 51.95L92.75 20.70L92.55 20.70L85.05 52.90L78.80 52.90L70 20.55L69.80 20.55L69.80 51.95L72.55 51.95L72.55 52.90L65.75 52.90L65.75 51.95L68.50 51.95L68.50 18.85L65.75 18.85L65.75 17.90L79.25 17.90L85.90 43.65L91.90 17.90ZM128.10 51.95L124.45 41.15L114.55 41.15L110.70 51.95L114.45 51.95L114.45 52.90L106.80 52.90L106.80 51.95L109.15 51.95L121.90 17.60L126 17.60L138.60 51.95L140.90 51.95L140.90 52.90L124.55 52.90L124.55 51.95L128.10 51.95M119.70 26.95L115 40.05L124.05 40.05L119.70 26.95ZM142.45 17.90L157.70 17.90L157.70 18.85L154.95 18.85L154.95 51.95L157.70 51.95L157.70 52.90L142.45 52.90L142.45 51.95L145.20 51.95L145.20 18.85L142.45 18.85L142.45 17.90ZM188.45 18.85L188.45 52.90L181.45 52.90L164.30 20.55L164.30 51.95L167.05 51.95L167.05 52.90L160.20 52.90L160.20 51.95L162.95 51.95L162.95 18.85L160.20 18.85L160.20 17.90L174 17.90L187.10 43.00L187.10 18.85L184.35 18.85L184.35 17.90L191.20 17.90L191.20 18.85L188.45 18.85ZM223.05 51.95L219.40 41.15L209.50 41.15L205.65 51.95L209.40 51.95L209.40 52.90L201.75 52.90L201.75 51.95L204.10 51.95L216.85 17.60L220.95 17.60L233.55 51.95L235.85 51.95L235.85 52.90L219.50 52.90L219.50 51.95L223.05 51.95M214.65 26.95L209.95 40.05L219 40.05L214.65 26.95ZM252.55 35.20L249.90 35.20L249.90 51.95L253.15 51.95L253.15 52.90L236.90 52.90L236.90 51.95L240.15 51.95L240.15 18.85L236.90 18.85L236.90 17.90L252.00 17.90Q258.50 17.90 261.22 18.58Q263.95 19.25 265.05 20.20Q267.45 22.15 267.45 26.40Q267.45 30.65 265.35 32.48Q263.25 34.30 258.95 34.65L258.95 34.80Q263 35.35 264.60 37.20Q266.20 39.05 266.20 43.40L266.20 46.05Q266.20 48.65 266.47 49.55Q266.75 50.45 267.65 50.45Q268.55 50.45 269.07 49.63Q269.60 48.80 270.05 46.15L270.90 46.25Q270.35 50.50 268.97 51.95Q267.60 53.40 263.50 53.40Q259.40 53.40 257.67 51.48Q255.95 49.55 255.95 44.25L255.95 40.60Q255.95 37.80 255.22 36.50Q254.50 35.20 252.55 35.20M249.90 18.85L249.90 34.25L251.50 34.25Q254.35 34.25 255.72 32.50Q257.10 30.75 257.10 26.80L257.10 25.35Q257.10 21.40 255.77 20.13Q254.45 18.85 251.55 18.85L249.90 18.85ZM301.45 18.85L301.45 52.90L294.45 52.90L277.30 20.55L277.30 51.95L280.05 51.95L280.05 52.90L273.20 52.90L273.20 51.95L275.95 51.95L275.95 18.85L273.20 18.85L273.20 17.90L287 17.90L300.10 43.00L300.10 18.85L297.35 18.85L297.35 17.90L304.20 17.90L304.20 18.85L301.45 18.85ZM330 37.45L330 33.75Q330 24.60 329.10 22.20Q328.10 19.45 326.25 18.80Q325.20 18.40 323.70 18.40Q322.20 18.40 321.13 18.80Q320.05 19.20 319.35 20.20Q318.65 21.20 318.22 22.30Q317.80 23.40 317.55 25.40Q317.25 28.30 317.25 33.95L317.25 37.55Q317.25 43.65 317.72 46.23Q318.20 48.80 318.90 49.90Q320.45 52.35 323.70 52.35Q327.65 52.35 328.82 49.03Q330 45.70 330 37.45M323.60 53.40Q323.60 53.40 319.43 53.40Q315.25 53.40 311.13 48.88Q307 44.35 307 35.78Q307 27.20 311.43 22.28Q315.85 17.35 323.95 17.35Q332.05 17.35 336.18 22.03Q340.30 26.70 340.30 35.30Q340.30 43.90 336.13 48.65Q331.95 53.40 323.60 53.40ZM343.40 17.90L358.35 17.90Q365.30 17.90 368.77 19.78Q372.25 21.65 372.25 26.10Q372.25 32.95 364.00 34.30L364.00 34.40Q374.00 35.65 374.00 43.10Q374.00 48.55 369.90 50.73Q365.80 52.90 358.10 52.90L343.40 52.90L343.40 51.95L346.65 51.95L346.65 18.85L343.40 18.85L343.40 17.90M356.40 35.20L356.40 51.95L358.75 51.95Q361.50 51.95 362.60 50.05Q363.70 48.15 363.70 44.45L363.70 41.80Q363.70 38.50 362.35 36.85Q361.00 35.20 357.55 35.20L356.40 35.20M356.40 18.85L356.40 34.25L357.70 34.25Q360.30 34.25 361.32 32.68Q362.35 31.10 362.35 27.85L362.35 25.50Q362.35 21.80 361.45 20.33Q360.55 18.85 358.00 18.85L356.40 18.85Z"/></g></g></svg>